<svg width="200" height="94" viewBox="0 0 200 94" fill="none" xmlns="http://www.w3.org/2000/svg">
<path d="M89.5364 26.4289C89.5398 26.3966 89.5449 26.348 89.5517 26.2833C89.6232 26.2253 89.7178 26.1043 89.8353 25.9203C89.9852 25.7397 90.1334 25.5752 90.2799 25.427C90.4299 25.2463 90.5602 25.0964 90.6709 24.9771C90.785 24.8254 90.8583 24.7513 90.8907 24.7547C91.0951 24.678 91.3984 24.5953 91.8005 24.5066C91.9692 24.4589 92.1668 24.447 92.3934 24.4708L92.1076 27.1902L98.5636 43.7762L99.2075 43.2547C99.3063 42.9378 99.526 42.4044 99.8667 41.6547C100.243 40.8759 100.625 40.0487 101.011 39.1728C101.398 38.297 101.762 37.4842 102.102 36.7344C102.475 35.9881 102.727 35.4582 102.858 35.1446C102.94 34.9896 103.1 34.7118 103.339 34.3114C103.61 33.9143 103.905 33.438 104.225 32.8825C104.578 32.3304 104.934 31.746 105.293 31.1291C105.685 30.5157 106.041 29.9312 106.362 29.3757C106.714 28.8236 107.01 28.3473 107.248 27.9469C107.49 27.514 107.65 27.2363 107.729 27.1136C107.846 26.9296 107.941 26.645 108.015 26.2599C108.12 25.8782 108.24 25.5144 108.375 25.1685C108.545 24.7937 108.757 24.4886 109.011 24.2535C109.268 23.9859 109.607 23.8743 110.028 23.9185C110.093 23.9253 110.14 23.9466 110.169 23.9824C110.234 23.9892 110.282 23.9943 110.314 23.9977C110.473 24.0471 110.689 24.168 110.964 24.3605C111.241 24.5206 111.38 24.6007 111.38 24.6007L115.17 53.4753C115.225 53.5792 115.29 53.7334 115.367 53.9379C115.476 54.1457 115.565 54.3842 115.635 54.6534C115.741 54.8937 115.83 55.1322 115.904 55.369C116.013 55.5769 116.062 55.7294 116.052 55.8265C116.049 55.8589 116.044 55.9074 116.037 55.9722C116.062 56.0403 116.072 56.1068 116.065 56.1715C116.024 56.56 115.891 56.8897 115.666 57.1607C115.474 57.435 115.167 57.5501 114.746 57.5058C114.423 57.4718 114.154 57.3781 113.941 57.2248C113.764 57.0425 113.717 56.7103 113.801 56.2281C113.732 55.6318 113.63 54.7372 113.493 53.5446C113.357 52.3519 113.189 50.9922 112.989 49.4656C112.822 47.9424 112.645 46.3527 112.459 44.6966C112.277 43.0081 112.086 41.4006 111.886 39.874C111.719 38.3507 111.567 36.9928 111.431 35.8001C111.294 34.6074 111.174 33.7274 111.07 33.16C111.026 32.959 110.948 32.6072 110.837 32.1045C110.73 31.5696 110.622 31.0346 110.515 30.4996C110.411 29.9322 110.302 29.4134 110.187 28.9431C110.077 28.4405 109.981 28.1032 109.901 27.9311C107.474 30.7854 105.391 33.9379 103.654 37.3885C101.949 40.8425 100.486 44.322 99.267 47.827C99.2313 47.8559 99.0822 47.873 98.8198 47.8782C98.5932 47.8543 98.4475 47.839 98.3827 47.8322C97.8971 47.7812 97.5035 47.478 97.2018 46.9225C96.9036 46.3348 96.6607 45.6873 96.4731 44.9803C96.3214 44.2442 96.1969 43.5602 96.0997 42.928C96.0348 42.2993 95.9768 41.9168 95.9257 41.7805C95.8558 41.5113 95.7186 41.1041 95.514 40.5589L93.1361 34.221C92.8804 33.5395 92.6341 32.9244 92.3972 32.3758C92.1961 31.7982 92.0427 31.3893 91.937 31.1491L91.8196 32.266C91.8231 32.8555 91.8071 33.7867 91.7715 35.0595C91.7683 36.3357 91.7464 37.7899 91.7057 39.4222C91.7009 41.0255 91.6875 42.7098 91.6656 44.475C91.6437 46.2402 91.6125 47.9389 91.5719 49.5712C91.567 51.1745 91.5468 52.6126 91.5112 53.8854C91.5114 55.1292 91.5115 56.0621 91.5116 56.684C91.6157 57.2513 91.6941 57.7506 91.747 58.1816C91.8323 58.6161 91.8477 59.0923 91.7932 59.6103C91.7626 59.9017 91.6706 60.1538 91.5173 60.3668C91.364 60.5799 91.1255 60.6693 90.8017 60.6353C90.478 60.6013 90.2377 60.396 90.0809 60.0195C89.9207 59.6753 89.8142 59.2877 89.7613 58.8567C89.7373 58.4614 89.7279 58.084 89.733 57.7245C89.7346 57.3973 89.7389 57.2014 89.7457 57.1366C89.7296 52.618 89.8235 48.1437 90.0272 43.7136C90.2634 39.287 90.3555 34.8288 90.3037 30.3392C90.2918 30.1415 90.238 29.874 90.1426 29.5367C90.0795 29.2027 89.984 28.8654 89.8562 28.5246C89.7641 28.1549 89.6703 27.8014 89.5749 27.464C89.5118 27.1301 89.4921 26.8498 89.516 26.6232L89.5364 26.4289ZM118.646 54.037C118.745 53.0982 118.964 51.9429 119.305 50.5713C119.678 49.203 120.137 47.7947 120.682 46.3464C121.262 44.869 121.94 43.4019 122.715 41.945C123.523 40.4915 124.394 39.2083 125.329 38.0956C126.268 36.9504 127.294 36.06 128.409 35.4243C129.523 34.7886 130.695 34.5354 131.925 34.6647C131.878 35.1179 131.636 35.5507 131.2 35.9631C130.799 36.3466 130.334 36.7232 129.804 37.093C129.31 37.4339 128.8 37.773 128.274 38.1104C127.751 38.4155 127.375 38.7197 127.147 39.023C126.264 39.945 125.451 40.9887 124.706 42.1543C123.965 43.2874 123.3 44.4777 122.711 45.725C122.125 46.9399 121.631 48.2136 121.229 49.5461C120.831 50.8462 120.565 52.1276 120.432 53.3901C120.412 53.5844 120.412 53.8953 120.432 54.323C120.456 54.7183 120.495 55.1315 120.548 55.5625C120.633 55.997 120.756 56.3863 120.916 56.7305C121.08 57.0422 121.275 57.21 121.501 57.2339L121.647 57.2492C121.679 57.2526 121.713 57.2398 121.749 57.2108C122.725 56.3315 123.564 55.3559 124.266 54.2841C124.968 53.2122 125.592 52.0995 126.139 50.9459C126.689 49.7599 127.176 48.551 127.6 47.319C128.024 46.0871 128.447 44.8713 128.867 43.6717C129.002 43.3258 129.091 42.7951 129.133 42.0794C129.208 41.3672 129.313 40.6746 129.45 40.0015C129.618 39.3319 129.857 38.7679 130.167 38.3095C130.481 37.8187 130.978 37.6091 131.657 37.6805C131.787 37.6942 131.931 37.7257 132.089 37.775C132.284 37.7955 132.379 37.8218 132.376 37.8542C133.311 40.4729 134.108 42.7006 134.766 44.5372C135.428 46.3415 135.99 47.8408 136.454 49.0351C136.917 50.2294 137.293 51.1691 137.581 51.854C137.869 52.5389 138.076 53.0679 138.2 53.441C138.36 53.7852 138.466 54.0254 138.517 54.1617C138.572 54.2656 138.596 54.35 138.589 54.4147C138.608 54.5476 138.614 54.7938 138.609 55.1533C138.608 55.4805 138.586 55.8383 138.546 56.2268C138.541 56.5863 138.519 56.9441 138.482 57.3002C138.48 57.6273 138.474 57.8395 138.464 57.9366C138.14 57.9026 137.786 57.8489 137.401 57.7757C137.016 57.7025 136.763 57.4632 136.642 57.0577L131.784 43.4873L131.311 42.8484C131.176 43.1943 130.915 43.8052 130.529 44.681C130.175 45.5602 129.781 46.5008 129.349 47.5028C128.952 48.4757 128.576 49.4018 128.222 50.2811C127.868 51.1603 127.623 51.7729 127.489 52.1188C127.243 52.584 126.913 53.2366 126.497 54.0767C126.114 54.9202 125.65 55.7551 125.105 56.5816C124.56 57.408 123.962 58.1144 123.311 58.7006C122.66 59.2868 121.979 59.5425 121.266 59.4676C120.684 59.4064 120.217 59.1773 119.866 58.7804C119.518 58.351 119.244 57.8476 119.043 57.27C118.841 56.6925 118.707 56.1055 118.639 55.5092C118.603 54.9162 118.605 54.4255 118.646 54.037ZM141.043 42.7421L142.668 54.8434L143.251 54.9047C143.457 53.8789 143.75 52.7969 144.132 51.6587C144.546 50.5239 145.055 49.4154 145.66 48.3334C146.268 47.219 146.952 46.1616 147.711 45.1613C148.504 44.1645 149.363 43.3056 150.29 42.5847C151.217 41.8638 152.223 41.315 153.31 40.9383C154.43 40.565 155.621 40.4447 156.883 40.5774C156.802 41.3544 156.407 42.0002 155.698 42.5149C155.021 43.0329 154.217 43.5212 153.285 43.9797C152.353 44.4382 151.386 44.9256 150.382 45.4421C149.411 45.9619 148.621 46.6316 148.011 47.4513C147.369 48.2675 146.808 49.2397 146.33 50.3677C145.887 51.4667 145.487 52.6195 145.131 53.8258C144.811 55.0033 144.538 56.202 144.312 57.422C144.089 58.6096 143.894 59.6856 143.727 60.65C143.502 60.9209 143.263 61.174 143.009 61.4092C142.791 61.6154 142.52 61.7015 142.196 61.6674C142.067 61.6538 141.908 61.6044 141.721 61.5193C141.537 61.4017 141.426 61.2101 141.388 60.9443L139.78 42.6094L141.043 42.7421ZM159.371 28.1227C160.163 27.7477 160.727 27.6761 161.063 27.9077C161.398 28.1394 161.573 28.5014 161.587 28.9938L163.806 51.3208C164.189 51.0992 164.606 50.7175 165.056 50.1756C165.541 49.6047 166.034 48.9691 166.533 48.2688C167.032 47.5684 167.534 46.8357 168.04 46.0706C168.579 45.3089 169.092 44.6264 169.581 44.0231C170.106 43.3909 170.617 42.8882 171.114 42.515C171.644 42.1452 172.168 41.9875 172.686 42.0419C172.848 42.0589 173.073 42.0989 173.361 42.1619C173.681 42.2283 173.826 42.4072 173.795 42.6986C173.768 42.9576 173.678 43.1936 173.525 43.4066C173.375 43.5872 173.192 43.7644 172.978 43.9383C172.763 44.1121 172.548 44.2859 172.334 44.4597C172.122 44.6012 171.963 44.7154 171.856 44.8023C171.638 45.0085 171.327 45.3195 170.923 45.7353C170.552 46.1545 170.146 46.5865 169.707 47.0313C169.3 47.4795 168.93 47.8825 168.598 48.2403C168.266 48.5982 168.076 48.8402 168.03 48.9663C167.77 49.2662 167.449 49.6743 167.067 50.1906C166.686 50.707 166.32 51.225 165.971 51.7447C165.625 52.2321 165.317 52.6743 165.046 53.0713C164.808 53.4718 164.685 53.7044 164.678 53.7691L164.581 54.6918C166.103 54.8517 167.467 54.946 168.675 54.9748C169.887 54.9712 171.068 54.948 172.218 54.9052C173.368 54.8625 174.547 54.8555 175.755 54.8842C176.966 54.8806 178.317 54.9571 179.806 55.1136C180.065 55.1408 180.301 55.2311 180.514 55.3844C180.727 55.5377 180.816 55.7763 180.782 56.1C180.755 56.359 180.683 56.5805 180.565 56.7645C180.448 56.9486 180.277 57.1761 180.052 57.447C179.155 57.2546 177.975 57.1142 176.512 57.0259C175.052 56.9051 173.536 56.844 171.965 56.8426C170.426 56.8445 168.93 56.9163 167.475 57.058C166.02 57.1996 164.869 57.4059 164.022 57.677L163.491 62.7273L162.5 63.7523C162.014 62.4575 161.716 61.0842 161.607 59.6325C161.533 58.1519 161.528 56.6457 161.591 55.1139C161.686 53.5856 161.749 52.0538 161.779 50.5186C161.846 48.9545 161.758 47.4559 161.515 46.023C161.519 45.9907 161.509 45.9242 161.487 45.8237C161.501 45.6942 161.478 45.4463 161.418 45.08C161.394 44.6847 161.34 44.1062 161.257 43.3446C161.173 42.583 161.052 41.5556 160.893 40.2624C160.738 38.9368 160.534 37.2952 160.282 35.3375C160.033 33.3474 159.729 30.9425 159.371 28.1227ZM179.101 58.0835C179.169 57.4361 179.259 56.5782 179.372 55.5098C179.52 54.4125 179.723 53.2556 179.982 52.039C180.244 50.79 180.573 49.5317 180.968 48.2639C181.363 46.9962 181.858 45.8699 182.452 44.885C183.047 43.9 183.75 43.123 184.563 42.5538C185.375 41.9846 186.332 41.7578 187.433 41.8735C188.954 42.0334 190.124 42.5819 190.942 43.5188C191.793 44.4592 192.394 45.5862 192.747 46.8999C193.136 48.1845 193.336 49.5476 193.348 50.989C193.396 52.4015 193.361 53.6743 193.242 54.8074C193.112 56.0376 192.795 57.3462 192.289 58.7332C191.783 60.1202 191.095 61.3735 190.224 62.4931C189.354 63.6126 188.31 64.5176 187.092 65.2078C185.909 65.8691 184.541 66.1181 182.987 65.9547C181.983 65.8493 181.198 65.5376 180.63 65.0197C180.066 64.4694 179.66 63.8212 179.411 63.0749C179.195 62.3321 179.067 61.5168 179.03 60.6291C178.992 59.7414 179.016 58.8929 179.101 58.0835ZM180.813 57.6744C180.749 58.2895 180.697 58.9386 180.658 59.6219C180.622 60.2728 180.655 60.8981 180.755 61.4978C180.856 62.0976 181.098 62.5976 181.481 62.9979C181.865 63.3983 182.461 63.641 183.27 63.7261C184.695 63.8758 185.894 63.6745 186.869 63.1223C187.876 62.5735 188.707 61.8263 189.363 60.8805C190.022 59.9024 190.514 58.8084 190.837 57.5987C191.193 56.3923 191.431 55.2225 191.55 54.0895C191.624 53.3772 191.657 52.4478 191.646 51.3011C191.668 50.1578 191.557 49.0333 191.313 47.9275C191.07 46.8217 190.647 45.8608 190.045 45.0448C189.447 44.1964 188.598 43.7143 187.497 43.5986C186.72 43.517 186.008 43.7531 185.361 44.3069C184.746 44.8642 184.193 45.608 183.702 46.5384C183.212 47.4687 182.792 48.5048 182.443 49.6464C182.126 50.7914 181.847 51.8913 181.605 52.946C181.363 54.0008 181.18 54.9635 181.056 55.8342C180.932 56.7048 180.851 57.3182 180.813 57.6744Z" fill="white"/>
<path d="M0.507812 21.4062C0.507812 21.3802 0.507812 21.3411 0.507812 21.2891C0.559896 21.237 0.625 21.1328 0.703125 20.9766C0.807292 20.8203 0.911458 20.6771 1.01562 20.5469C1.11979 20.3906 1.21094 20.2604 1.28906 20.1562C1.36719 20.026 1.41927 19.9609 1.44531 19.9609C1.60156 19.8828 1.83594 19.7917 2.14844 19.6875C2.27865 19.6354 2.4349 19.6094 2.61719 19.6094V21.7969L9.14062 34.4531L9.60938 33.9844C9.66146 33.724 9.79167 33.2812 10 32.6562C10.2344 32.0052 10.4688 31.3151 10.7031 30.5859C10.9375 29.8568 11.1589 29.1797 11.3672 28.5547C11.6016 27.9297 11.7578 27.487 11.8359 27.2266C11.888 27.0964 11.9922 26.862 12.1484 26.5234C12.3307 26.1849 12.526 25.7812 12.7344 25.3125C12.9688 24.8438 13.2031 24.349 13.4375 23.8281C13.6979 23.3073 13.9323 22.8125 14.1406 22.3438C14.375 21.875 14.5703 21.4714 14.7266 21.1328C14.8828 20.7682 14.987 20.5339 15.0391 20.4297C15.1172 20.2734 15.1693 20.0391 15.1953 19.7266C15.2474 19.4141 15.3125 19.1146 15.3906 18.8281C15.4948 18.5156 15.638 18.2552 15.8203 18.0469C16.0026 17.8125 16.263 17.6953 16.6016 17.6953C16.6536 17.6953 16.6927 17.7083 16.7188 17.7344C16.7708 17.7344 16.8099 17.7344 16.8359 17.7344C16.9661 17.7604 17.1484 17.8385 17.3828 17.9688C17.6172 18.0729 17.7344 18.125 17.7344 18.125L23.1641 40.7812C23.2161 40.8594 23.2812 40.9766 23.3594 41.1328C23.4635 41.2891 23.5547 41.4714 23.6328 41.6797C23.737 41.862 23.8281 42.0443 23.9062 42.2266C24.0104 42.3828 24.0625 42.5 24.0625 42.5781C24.0625 42.6042 24.0625 42.6432 24.0625 42.6953C24.0885 42.7474 24.1016 42.7995 24.1016 42.8516C24.1016 43.1641 24.0234 43.4375 23.8672 43.6719C23.737 43.9062 23.5026 44.0234 23.1641 44.0234C22.9036 44.0234 22.6823 43.9714 22.5 43.8672C22.3438 43.737 22.2786 43.4766 22.3047 43.0859C22.2005 42.6172 22.0443 41.9141 21.8359 40.9766C21.6276 40.0391 21.3802 38.9714 21.0938 37.7734C20.8333 36.5755 20.5599 35.3255 20.2734 34.0234C19.987 32.6953 19.7005 31.4323 19.4141 30.2344C19.1536 29.0365 18.9193 27.9688 18.7109 27.0312C18.5026 26.0938 18.3333 25.4036 18.2031 24.9609C18.151 24.8047 18.0599 24.5312 17.9297 24.1406C17.7995 23.724 17.6693 23.3073 17.5391 22.8906C17.4089 22.4479 17.2786 22.0443 17.1484 21.6797C17.0182 21.2891 16.9141 21.0286 16.8359 20.8984C15.1432 23.3724 13.75 26.0547 12.6562 28.9453C11.5885 31.8359 10.7161 34.7266 10.0391 37.6172C10.013 37.6432 9.89583 37.6693 9.6875 37.6953C9.50521 37.6953 9.38802 37.6953 9.33594 37.6953C8.94531 37.6953 8.60677 37.487 8.32031 37.0703C8.03385 36.6276 7.78646 36.1328 7.57812 35.5859C7.39583 35.013 7.23958 34.4792 7.10938 33.9844C7.00521 33.4896 6.92708 33.1901 6.875 33.0859C6.79688 32.8776 6.65365 32.5651 6.44531 32.1484L4.02344 27.3047C3.76302 26.7839 3.51562 26.3151 3.28125 25.8984C3.07292 25.4557 2.91667 25.1432 2.8125 24.9609V25.8594C2.86458 26.3281 2.92969 27.0703 3.00781 28.0859C3.11198 29.1016 3.21615 30.2604 3.32031 31.5625C3.45052 32.8385 3.58073 34.1797 3.71094 35.5859C3.84115 36.9922 3.95833 38.3464 4.0625 39.6484C4.19271 40.9245 4.29688 42.0703 4.375 43.0859C4.47917 44.0755 4.55729 44.8177 4.60938 45.3125C4.73958 45.7552 4.84375 46.1458 4.92188 46.4844C5.02604 46.8229 5.07812 47.2005 5.07812 47.6172C5.07812 47.8516 5.02604 48.0599 4.92188 48.2422C4.81771 48.4245 4.63542 48.5156 4.375 48.5156C4.11458 48.5156 3.90625 48.3724 3.75 48.0859C3.59375 47.8255 3.47656 47.526 3.39844 47.1875C3.34635 46.875 3.30729 46.5755 3.28125 46.2891C3.25521 46.0286 3.24219 45.8724 3.24219 45.8203C2.85156 42.2266 2.55208 38.6589 2.34375 35.1172C2.16146 31.5755 1.86198 28.0208 1.44531 24.4531C1.41927 24.2969 1.35417 24.0885 1.25 23.8281C1.17188 23.5677 1.06771 23.3073 0.9375 23.0469C0.833333 22.7604 0.729167 22.487 0.625 22.2266C0.546875 21.9661 0.507812 21.7448 0.507812 21.5625V21.4062ZM25.8203 27.2266C25.9766 27.2266 26.1458 27.2786 26.3281 27.3828C26.5365 27.487 26.6667 27.6302 26.7188 27.8125L29.4531 41.3672C29.7656 41.8359 29.987 42.2135 30.1172 42.5C30.2734 42.7865 30.3516 43.1641 30.3516 43.6328C30.3516 43.8672 30.3125 44.1667 30.2344 44.5312C30.1562 44.8698 29.974 45.0391 29.6875 45.0391H29.5312C29.4792 45.0391 29.4531 45.026 29.4531 45C29.401 44.974 29.3229 44.9219 29.2188 44.8438L28.6328 44.2578C28.5547 44.1797 28.5156 44.1276 28.5156 44.1016L25.8203 28.6719V27.2266ZM25.1562 18.4766C25.7292 18.4766 26.1458 18.5547 26.4062 18.7109C26.6927 18.8411 26.8359 19.1797 26.8359 19.7266C26.8359 19.9089 26.8229 20.1302 26.7969 20.3906C26.7708 20.651 26.6146 20.8203 26.3281 20.8984C25.8073 20.6901 25.4818 20.3516 25.3516 19.8828C25.2214 19.4141 25.1562 18.9453 25.1562 18.4766ZM32.1094 30.4688C32.1094 30.3125 32.1094 30.1302 32.1094 29.9219C32.1354 29.7135 32.1615 29.5182 32.1875 29.3359C32.2396 29.1276 32.3307 28.9583 32.4609 28.8281C32.5911 28.6979 32.7734 28.6328 33.0078 28.6328C33.0599 28.6328 33.138 28.6458 33.2422 28.6719C33.3724 28.6719 33.4635 28.6719 33.5156 28.6719C33.5417 30.5208 33.6328 32.4219 33.7891 34.375C33.9714 36.3281 34.3229 38.2161 34.8438 40.0391C34.8698 39.7526 34.9349 39.2708 35.0391 38.5938C35.1693 37.8906 35.2995 37.1615 35.4297 36.4062C35.5859 35.625 35.7292 34.8958 35.8594 34.2188C36.0156 33.5417 36.1198 33.0599 36.1719 32.7734C36.3542 32.2266 36.6016 31.6667 36.9141 31.0938C37.2266 30.4948 37.6042 29.9479 38.0469 29.4531C38.5156 28.9583 39.0234 28.5547 39.5703 28.2422C40.1432 27.9297 40.7422 27.7734 41.3672 27.7734C42.4089 27.7734 43.3333 28.0078 44.1406 28.4766C44.9479 28.9453 45.6641 29.5703 46.2891 30.3516C46.9401 31.1068 47.487 31.9792 47.9297 32.9688C48.3724 33.9323 48.737 34.9219 49.0234 35.9375C49.3099 36.9531 49.5182 37.9297 49.6484 38.8672C49.7786 39.8047 49.8438 40.638 49.8438 41.3672V41.8359C49.8438 41.9922 49.8177 42.1484 49.7656 42.3047C49.7396 42.4349 49.6745 42.5521 49.5703 42.6562C49.4922 42.7344 49.3359 42.7734 49.1016 42.7734C48.8411 42.7734 48.6198 42.6172 48.4375 42.3047C48.4115 41.6536 48.3333 40.8984 48.2031 40.0391C48.099 39.1797 47.9427 38.2812 47.7344 37.3438C47.5521 36.3802 47.2917 35.4427 46.9531 34.5312C46.6406 33.5938 46.237 32.7604 45.7422 32.0312C45.2734 31.3021 44.7135 30.7161 44.0625 30.2734C43.4115 29.8047 42.6302 29.5703 41.7188 29.5703C40.9896 29.5703 40.3516 29.7005 39.8047 29.9609C39.2839 30.2214 38.8411 30.5859 38.4766 31.0547C38.112 31.4974 37.8125 32.0312 37.5781 32.6562C37.3698 33.2552 37.2135 33.9062 37.1094 34.6094C37.0312 34.974 36.9271 35.625 36.7969 36.5625C36.6667 37.5 36.5234 38.5026 36.3672 39.5703C36.2109 40.638 36.0677 41.6406 35.9375 42.5781C35.8333 43.5156 35.7682 44.1667 35.7422 44.5312C35.6641 44.7917 35.5208 44.9479 35.3125 45C35.1302 45.0521 34.9349 45.0781 34.7266 45.0781C34.7005 45.0781 34.6354 45.0651 34.5312 45.0391C34.4271 45.0391 34.375 45.026 34.375 45L32.1484 31.4453C32.1484 31.3932 32.1354 31.25 32.1094 31.0156C32.1094 30.7812 32.1094 30.599 32.1094 30.4688ZM47.8125 61.6016C48.125 61.6016 48.3854 61.7448 48.5938 62.0312C48.8021 62.3438 49.0104 62.6823 49.2188 63.0469C49.401 63.4375 49.6224 63.776 49.8828 64.0625C50.1432 64.375 50.5078 64.5312 50.9766 64.5312C51.7318 64.2969 52.3828 63.6458 52.9297 62.5781C53.4766 61.5365 53.8932 60.2344 54.1797 58.6719C54.4922 57.1094 54.6875 55.3516 54.7656 53.3984C54.8698 51.4714 54.8568 49.4922 54.7266 47.4609C54.5964 45.4557 54.362 43.4635 54.0234 41.4844C53.7109 39.4792 53.3073 37.6432 52.8125 35.9766V35.5469C52.8125 35.2865 52.9167 35.0521 53.125 34.8438C53.3594 34.6094 53.6068 34.4922 53.8672 34.4922C54.388 36.3411 54.8568 38.3594 55.2734 40.5469C55.6901 42.7083 55.9896 44.8958 56.1719 47.1094C56.3802 49.349 56.4583 51.5234 56.4062 53.6328C56.3802 55.7422 56.2109 57.6432 55.8984 59.3359C55.5859 61.0547 55.1042 62.487 54.4531 63.6328C53.8021 64.8047 52.9557 65.5469 51.9141 65.8594C51.3672 66.1979 50.8594 66.237 50.3906 65.9766C49.8958 65.7422 49.4661 65.3646 49.1016 64.8438C48.737 64.349 48.4375 63.776 48.2031 63.125C47.9688 62.5 47.8385 61.9922 47.8125 61.6016ZM50.8984 25.1562V24.2578C50.8984 24.1016 50.9115 23.9583 50.9375 23.8281C50.9896 23.6979 51.0677 23.5938 51.1719 23.5156C51.276 23.4115 51.4193 23.3594 51.6016 23.3594C51.8359 23.3594 52.0052 23.4245 52.1094 23.5547C52.2135 23.6589 52.2786 23.7891 52.3047 23.9453C52.3568 24.1016 52.3698 24.2708 52.3438 24.4531C52.3438 24.6354 52.3438 24.7917 52.3438 24.9219C52.3438 25.0781 52.3438 25.2474 52.3438 25.4297C52.3698 25.612 52.3568 25.7943 52.3047 25.9766C52.2786 26.1328 52.2135 26.276 52.1094 26.4062C52.0052 26.5104 51.8359 26.5625 51.6016 26.5625C51.4193 26.5625 51.276 26.4844 51.1719 26.3281C51.0677 26.1719 50.9896 26.0026 50.9375 25.8203C50.9115 25.612 50.8984 25.3906 50.8984 25.1562ZM62.4219 40.9375C62.4219 40.1823 62.5 39.2448 62.6562 38.125C62.8385 37.0052 63.0859 35.8464 63.3984 34.6484C63.737 33.4245 64.1536 32.2005 64.6484 30.9766C65.1693 29.7526 65.7552 28.6589 66.4062 27.6953C67.0573 26.7057 67.7995 25.9115 68.6328 25.3125C69.4661 24.7135 70.3776 24.4141 71.3672 24.4141C71.3672 24.7786 71.2109 25.1432 70.8984 25.5078C70.612 25.8464 70.2734 26.1849 69.8828 26.5234C69.5182 26.8359 69.1406 27.1484 68.75 27.4609C68.3594 27.7474 68.0859 28.0208 67.9297 28.2812C67.3047 29.0885 66.7448 29.987 66.25 30.9766C65.7552 31.9401 65.3255 32.9427 64.9609 33.9844C64.5964 35 64.3099 36.0547 64.1016 37.1484C63.8932 38.2161 63.7891 39.2578 63.7891 40.2734C63.7891 40.4297 63.8151 40.6771 63.8672 41.0156C63.9193 41.3281 63.9844 41.6536 64.0625 41.9922C64.1667 42.3307 64.2969 42.6302 64.4531 42.8906C64.6094 43.125 64.7786 43.2422 64.9609 43.2422H65.0781C65.1042 43.2422 65.1302 43.2292 65.1562 43.2031C65.8594 42.4219 66.4453 41.5755 66.9141 40.6641C67.3828 39.7526 67.7865 38.8151 68.125 37.8516C68.4635 36.862 68.75 35.8594 68.9844 34.8438C69.2188 33.8281 69.4531 32.8255 69.6875 31.8359C69.7656 31.5495 69.7917 31.1198 69.7656 30.5469C69.7656 29.974 69.7917 29.4141 69.8438 28.8672C69.9219 28.3203 70.0651 27.8516 70.2734 27.4609C70.4818 27.0443 70.8594 26.8359 71.4062 26.8359C71.5104 26.8359 71.6276 26.849 71.7578 26.875C71.9141 26.875 71.9922 26.888 71.9922 26.9141C72.9557 28.9193 73.776 30.625 74.4531 32.0312C75.1302 33.4115 75.7031 34.5573 76.1719 35.4688C76.6406 36.3802 77.0182 37.0964 77.3047 37.6172C77.5911 38.138 77.7995 38.5417 77.9297 38.8281C78.0859 39.0885 78.1901 39.2708 78.2422 39.375C78.2943 39.4531 78.3203 39.5182 78.3203 39.5703C78.3464 39.6745 78.3724 39.8698 78.3984 40.1562C78.4245 40.4167 78.4375 40.7031 78.4375 41.0156C78.4635 41.3021 78.4766 41.5885 78.4766 41.875C78.5026 42.1354 78.5156 42.3047 78.5156 42.3828C78.2552 42.3828 77.9688 42.3698 77.6562 42.3438C77.3438 42.3177 77.1224 42.1484 76.9922 41.8359L71.9922 31.4453L71.5625 30.9766C71.4844 31.263 71.3281 31.7708 71.0938 32.5C70.8854 33.2292 70.651 34.0104 70.3906 34.8438C70.1562 35.651 69.9349 36.4193 69.7266 37.1484C69.5182 37.8776 69.375 38.3854 69.2969 38.6719C69.1406 39.0625 68.9323 39.6094 68.6719 40.3125C68.4375 41.0156 68.138 41.7188 67.7734 42.4219C67.4089 43.125 66.9922 43.737 66.5234 44.2578C66.0547 44.7786 65.5339 45.0391 64.9609 45.0391C64.4922 45.0391 64.1016 44.8958 63.7891 44.6094C63.4766 44.2969 63.2161 43.9193 63.0078 43.4766C62.7995 43.0339 62.6432 42.5781 62.5391 42.1094C62.4609 41.6406 62.4219 41.25 62.4219 40.9375Z" fill="white"/>
</svg>
